<?xml version="1.0" standalone="no"?>
<!DOCTYPE svg PUBLIC "-//W3C//DTD SVG 20010904//EN"
 "http://www.w3.org/TR/2001/REC-SVG-20010904/DTD/svg10.dtd">
<svg version="1.0" xmlns="http://www.w3.org/2000/svg"
 width="223.000000pt" height="223.000000pt" viewBox="0 0 223.000000 223.000000"
 preserveAspectRatio="xMidYMid meet">
<metadata>
Created by potrace 1.14, written by Peter Selinger 2001-2017
</metadata>
<g transform="translate(0.000000,223.000000) scale(0.100000,-0.100000)"
fill="#000000" stroke="none">
<path d="M968 2145 c-435 -73 -775 -429 -843 -882 -19 -124 -19 -212 0 -336
42 -282 192 -532 420 -704 84 -63 244 -138 350 -165 128 -32 333 -32 459 0
345 86 628 358 736 709 153 496 -64 1043 -508 1276 -190 100 -409 136 -614
102z m380 -65 c490 -120 816 -638 727 -1156 -70 -404 -344 -713 -725 -816
-122 -32 -328 -32 -450 0 -163 44 -321 135 -430 246 l-44 46 177 0 c144 0 177
3 177 14 0 9 -18 16 -57 21 -44 5 -63 14 -86 36 -27 28 -29 34 -25 87 3 36 18
89 43 145 l38 87 130 0 130 0 -7 -122 c-6 -94 -11 -129 -25 -148 -21 -29 -70
-49 -123 -49 -27 -1 -38 -5 -38 -16 0 -13 33 -15 228 -17 125 -1 203 -3 175
-5 -38 -3 -53 -8 -53 -19 0 -12 47 -14 320 -14 266 0 320 2 320 14 0 8 -15 17
-34 20 -41 8 -71 36 -38 36 11 0 56 18 100 40 142 71 208 176 200 316 -10 152
-98 241 -296 299 l-73 21 58 18 c122 38 192 91 229 171 56 120 4 279 -119 360
-98 65 -124 68 -594 73 -381 3 -423 2 -423 -12 0 -12 10 -16 38 -17 103 -1
141 -40 143 -149 l2 -75 -212 -469 c-116 -258 -225 -491 -242 -517 -26 -42
-94 -99 -103 -88 -2 2 -22 31 -44 65 -238 351 -240 817 -5 1172 47 70 156 187
226 240 218 167 515 229 785 162z m122 -417 c78 -40 113 -100 119 -200 2 -41
-2 -94 -9 -118 -24 -87 -108 -152 -216 -169 l-41 -6 -37 83 -36 82 0 184 0
184 83 -6 c61 -5 96 -14 137 -34z m-526 -375 c3 -13 6 -114 6 -225 l0 -203
-111 0 c-102 0 -111 1 -104 18 25 67 191 431 196 432 4 0 9 -10 13 -22z m531
-222 c90 -42 146 -124 160 -232 9 -63 -8 -147 -39 -198 l-23 -38 -104 237
c-57 131 -105 242 -107 246 -7 18 64 8 113 -15z"/>
</g>
</svg>
